<?xml version="1.0" encoding="UTF-8"?>
<svg id="Layer_2" xmlns="http://www.w3.org/2000/svg" viewBox="0 0 66.67 66.67">
  <defs>
    <style>
      .cls-1 {
        fill: #fff;
      }

      .cls-2 {
        fill: none;
      }
    </style>
  </defs>
  <g id="web">
    <g>
      <path class="cls-2" d="M33.33,16.94c1.86,0,3.69-.13,5.48-.37-1.31-3.38-3-6.57-5.03-9.52-.15,0-.3-.01-.45-.01s-.3,0-.46.01c-2.02,2.95-3.71,6.14-5.03,9.52,1.8.24,3.62.37,5.48.37Z"/>
      <path class="cls-2" d="M22.07,15.39c.9-2.45,1.97-4.81,3.21-7.08-3.32,1.07-6.35,2.78-8.95,4.98,1.84.83,3.76,1.53,5.74,2.09Z"/>
      <path class="cls-2" d="M18.98,30.42c.16-2.95.57-5.83,1.2-8.63-2.96-.84-5.81-1.97-8.52-3.33-2.39,3.48-3.97,7.56-4.46,11.97h11.77Z"/>
      <path class="cls-2" d="M40.72,43.9c.58-2.48.95-5.04,1.12-7.65h-17.01c.16,2.62.54,5.17,1.12,7.65,2.41-.37,4.88-.57,7.39-.57,2.51,0,4.98.2,7.39.57Z"/>
      <path class="cls-2" d="M18.98,36.25H7.21c.5,4.5,2.13,8.65,4.6,12.17,2.68-1.34,5.49-2.45,8.43-3.28-.67-2.88-1.09-5.85-1.26-8.89Z"/>
      <path class="cls-2" d="M33.33,50c-1.82,0-3.62.12-5.38.35,1.29,3.28,2.95,6.38,4.92,9.25.15,0,.3.01.46.01s.3,0,.45-.01c1.97-2.87,3.63-5.97,4.92-9.25-1.76-.23-3.55-.35-5.38-.35Z"/>
      <path class="cls-2" d="M25.88,23.03c-.54,2.4-.9,4.86-1.06,7.39h17.01c-.16-2.52-.51-4.99-1.06-7.39-2.43.38-4.91.58-7.45.58s-5.02-.2-7.45-.58Z"/>
      <path class="cls-2" d="M44.6,15.39c1.98-.56,3.89-1.26,5.74-2.09-2.6-2.21-5.63-3.92-8.95-4.98,1.24,2.26,2.31,4.63,3.21,7.08Z"/>
      <path class="cls-2" d="M22.16,51.53c-1.93.54-3.81,1.22-5.62,2.02,2.55,2.12,5.51,3.76,8.73,4.8-1.19-2.19-2.24-4.46-3.12-6.82Z"/>
      <path class="cls-2" d="M47.68,30.42h11.77c-.49-4.41-2.06-8.49-4.46-11.97-2.7,1.37-5.55,2.49-8.52,3.33.63,2.8,1.04,5.68,1.2,8.64Z"/>
      <path class="cls-2" d="M44.51,51.53c-.88,2.36-1.93,4.64-3.12,6.82,3.23-1.04,6.19-2.68,8.74-4.8-1.81-.8-3.68-1.48-5.62-2.02Z"/>
      <path class="cls-2" d="M47.68,36.25c-.17,3.04-.6,6.01-1.26,8.9,2.93.83,5.75,1.93,8.43,3.28,2.47-3.52,4.11-7.68,4.6-12.17h-11.77Z"/>
      <path class="cls-1" d="M59.82,53.57c.05-.06.1-.12.14-.18.3-.4.59-.8.87-1.21.03-.04.06-.08.09-.12h0c3.63-5.34,5.75-11.78,5.75-18.72s-2.07-13.23-5.62-18.53h0s0,0,0,0c-1.24-1.85-2.67-3.57-4.24-5.14,0,0,0,0,0,0h0C50.77,3.69,42.48,0,33.33,0,14.93,0,0,14.92,0,33.33c0,9.34,3.85,17.78,10.04,23.83,0,0,0,0,0,0h0c6.01,5.87,14.22,9.49,23.29,9.49,10.23,0,19.39-4.62,25.5-11.88.03-.03.05-.06.07-.08.31-.37.61-.75.91-1.14ZM33.33,59.62c-.15,0-.3,0-.46-.01-1.97-2.87-3.63-5.97-4.92-9.25,1.76-.23,3.55-.35,5.38-.35,1.82,0,3.62.12,5.38.35-1.29,3.28-2.95,6.38-4.92,9.25-.15,0-.3.01-.45.01ZM11.82,48.42c-2.47-3.52-4.11-7.67-4.6-12.17h11.77c.17,3.04.59,6.01,1.26,8.89-2.93.83-5.75,1.93-8.43,3.28ZM33.33,7.05c.15,0,.3,0,.45.01,2.02,2.95,3.71,6.14,5.03,9.52-1.79.24-3.62.37-5.48.37-1.86,0-3.69-.13-5.48-.37,1.31-3.38,3-6.57,5.03-9.52.15,0,.3-.01.46-.01ZM40.78,23.03c.54,2.4.9,4.86,1.06,7.39h-17.01c.16-2.52.51-4.99,1.06-7.39,2.43.38,4.92.58,7.45.58s5.02-.2,7.45-.58ZM22.07,15.39c-1.98-.56-3.89-1.26-5.74-2.09,2.6-2.21,5.63-3.92,8.95-4.98-1.24,2.26-2.31,4.63-3.21,7.08ZM20.19,21.78c-.63,2.8-1.04,5.68-1.2,8.63H7.21c.49-4.41,2.06-8.49,4.46-11.97,2.7,1.37,5.55,2.49,8.52,3.33ZM24.83,36.25h17.01c-.16,2.62-.54,5.17-1.12,7.65-2.41-.37-4.88-.57-7.39-.57-2.52,0-4.98.2-7.39.57-.58-2.48-.95-5.04-1.12-7.65ZM44.51,51.53c1.93.54,3.81,1.22,5.62,2.02-2.55,2.12-5.51,3.76-8.74,4.8,1.19-2.19,2.24-4.46,3.12-6.82ZM46.42,45.15c.67-2.88,1.09-5.85,1.26-8.9h11.77c-.5,4.5-2.13,8.65-4.6,12.17-2.68-1.34-5.49-2.45-8.43-3.28ZM59.46,30.42h-11.77c-.16-2.95-.57-5.83-1.2-8.64,2.96-.84,5.81-1.97,8.52-3.33,2.39,3.48,3.97,7.56,4.46,11.97ZM44.6,15.39c-.9-2.45-1.97-4.81-3.21-7.08,3.32,1.07,6.35,2.78,8.95,4.98-1.84.83-3.76,1.53-5.74,2.09ZM22.16,51.53c.88,2.36,1.93,4.64,3.12,6.82-3.23-1.04-6.19-2.68-8.73-4.8,1.81-.8,3.68-1.48,5.62-2.02Z"/>
    </g>
  </g>
</svg>