<?xml version="1.0" encoding="UTF-8"?>
<svg id="Layer_2" xmlns="http://www.w3.org/2000/svg" viewBox="0 0 71.04 60.86">
  <defs>
    <style>
      .cls-1 {
        fill: none;
      }

      .cls-2 {
        fill: #fefefe;
      }
    </style>
  </defs>
  <g id="Layer_40">
    <g>
      <path class="cls-1" d="M52.16,36.89c-.02-9.19-7.45-16.62-16.64-16.64-9.19.01-16.63,7.45-16.64,16.64.02,9.19,7.45,16.63,16.64,16.64,9.19-.02,16.62-7.45,16.64-16.64ZM35.52,45.45c-4.73,0-8.56-3.83-8.56-8.56s3.83-8.56,8.56-8.56,8.56,3.83,8.56,8.56-3.83,8.56-8.56,8.56Z"/>
      <path class="cls-2" d="M64.49,14.07h-13.78l-3.53-10.86c-.63-1.83-2.48-3.18-4.42-3.21h-14.49c-1.94.03-3.79,1.38-4.42,3.21l-3.53,10.86H6.56c-3.62,0-6.56,2.93-6.56,6.55v33.68c0,3.62,2.93,6.55,6.56,6.55h57.94c3.62,0,6.55-2.93,6.55-6.55V20.63c0-3.62-2.93-6.55-6.55-6.55ZM18.88,36.89c.02-9.19,7.45-16.62,16.64-16.64,9.19.01,16.62,7.45,16.64,16.64-.02,9.19-7.45,16.63-16.64,16.64-9.19-.02-16.63-7.45-16.64-16.64Z"/>
      <path class="cls-2" d="M35.52,28.34c-4.73,0-8.56,3.83-8.56,8.56s3.83,8.56,8.56,8.56,8.56-3.83,8.56-8.56-3.83-8.56-8.56-8.56Z"/>
    </g>
  </g>
</svg>