<?xml version="1.0" encoding="UTF-8"?>
<svg id="Layer_2" xmlns="http://www.w3.org/2000/svg" viewBox="0 0 79.28 55.5">
  <defs>
    <style>
      .cls-1 {
        fill: #fff;
      }
    </style>
  </defs>
  <g id="Layer_57">
    <path class="cls-1" d="M24.53,0H3.23C1.9,0,.72.8.23,2.04c-.49,1.23-.18,2.63.78,3.54l14.69,13.9v24.64c0,1.23.71,2.37,1.82,2.9,1.11.54,2.43.39,3.41-.37l12.82-10.1,19.09,18.06c.61.57,1.4.88,2.22.88.23,0,.46-.03.69-.07,1.04-.23,1.91-.96,2.3-1.96L79.28,0H24.53ZM23.18,36.57v-14.97l40.83-14.51-40.83,29.48Z"/>
  </g>
</svg>