<?xml version="1.0" encoding="UTF-8"?>
<svg id="Layer_2" xmlns="http://www.w3.org/2000/svg" viewBox="0 0 79.69 78.43">
  <defs>
    <style>
      .cls-1 {
        fill: #fefefe;
      }
    </style>
  </defs>
  <g id="add_user">
    <path class="cls-1" d="M41.64,26.14H10.65c-5.88,0-10.65,4.77-10.65,10.65v30.98c0,5.88,4.77,10.65,10.65,10.65h30.98c5.88,0,10.65-4.77,10.65-10.65v-30.98c0-5.88-4.77-10.65-10.65-10.65ZM10.65,45.51c0-2.14,1.73-3.87,3.87-3.87s3.87,1.73,3.87,3.87-1.73,3.87-3.87,3.87-3.87-1.73-3.87-3.87ZM37.88,63.05c-.25.2-4.58,4.66-11.74,4.72,0,0-.02,0-.03,0-3.55,0-6.31-1.21-8.12-2.42-1.82-1.22-2.75-2.43-2.89-2.61-.96-1.29-.7-3.11.58-4.07,1.27-.95,3.07-.71,4.04.55h0s.02.02.04.05c.05.06.13.15.26.28.25.25.65.61,1.19.97,1.09.72,2.68,1.44,4.92,1.45,4.15.05,7.39-2.76,7.63-3.02h0s0,0,0,0h0c1.13-1.13,2.97-1.13,4.1,0,1.13,1.13,1.13,2.97,0,4.11ZM37.76,49.38c-2.14,0-3.87-1.73-3.87-3.87s1.73-3.87,3.87-3.87,3.87,1.73,3.87,3.87-1.73,3.87-3.87,3.87Z"/>
    <path class="cls-1" d="M78.47,12.15h-10.94V1.22c0-.67-.54-1.22-1.21-1.22h-6.08c-.67,0-1.22.54-1.22,1.22v10.94h-10.94c-.67,0-1.22.54-1.22,1.22v6.08c0,.67.54,1.22,1.22,1.22h10.94v10.94c0,.67.54,1.22,1.22,1.22h6.08c.67,0,1.21-.54,1.21-1.22v-10.94h10.94c.67,0,1.21-.54,1.21-1.22v-6.08c0-.67-.54-1.22-1.21-1.22Z"/>
  </g>
</svg>