<?xml version="1.0" encoding="UTF-8"?>
<svg id="Layer_2" xmlns="http://www.w3.org/2000/svg" viewBox="0 0 74.53 49.14">
  <defs>
    <style>
      .cls-1 {
        fill: #fff;
      }
    </style>
  </defs>
  <g id="game">
    <path class="cls-1" d="M72.86,24.3c-1.43-7.32-3.44-15.33-6.21-19.69-5.77-7.44-13.17-4.03-15.53-2.43-1.05.71-3.3,2.3-5.47,3.83h-16.98c-2.1-1.48-4.23-2.98-5.25-3.67-2.36-1.6-9.77-5.01-15.53,2.43-2.78,4.35-4.78,12.37-6.21,19.69-1.45,7.42-3.42,19.41,1.27,22.73,4.27,3.02,10.2,3.09,14.71-3.81,1.93-2.96,4.65-7.23,7.14-11.16h25.05c2.46,3.88,5.13,8.08,7.04,11,4.51,6.9,10.44,6.84,14.71,3.81,4.7-3.32,2.72-15.31,1.27-22.73Z"/>
  </g>
</svg>