<?xml version="1.0" encoding="UTF-8"?>
<svg id="Layer_2" xmlns="http://www.w3.org/2000/svg" viewBox="0 0 81.27 71.8">
  <defs>
    <style>
      .cls-1 {
        fill: #fff;
      }
    </style>
  </defs>
  <g id="Layer_1-2" data-name="Layer_1">
    <g id="user_home">
      <path class="cls-1" d="M80.4,32.07L42.16.55c-.89-.73-2.16-.73-3.04,0L.87,32.08c-.78.64-1.07,1.7-.73,2.65.34.95,1.24,1.58,2.25,1.58h13.2v25.29c0,5.63,4.57,10.2,10.2,10.2h29.68c5.64,0,10.2-4.57,10.2-10.2v-25.29h13.2c1.01,0,1.91-.63,2.25-1.58.34-.95.05-2.01-.73-2.66ZM25.79,40.27c0-2.05,1.66-3.71,3.71-3.71s3.71,1.66,3.71,3.71-1.66,3.71-3.71,3.71c-2.05,0-3.71-1.66-3.71-3.71ZM51.88,57.07c-.24.19-4.38,4.46-11.24,4.52,0,0-.02,0-.03,0-3.4,0-6.05-1.16-7.78-2.32-1.74-1.17-2.63-2.33-2.77-2.5-.92-1.23-.67-2.98.56-3.9,1.22-.91,2.94-.68,3.87.53h0s.02.02.04.04c.04.05.13.15.25.26.24.24.62.58,1.14.93,1.05.69,2.56,1.38,4.72,1.39,3.97.05,7.08-2.65,7.31-2.9h0s0,0,0,0h0c1.09-1.08,2.84-1.08,3.93,0,1.09,1.09,1.09,2.85,0,3.93ZM51.76,43.98c-2.05,0-3.71-1.66-3.71-3.71s1.66-3.71,3.71-3.71,3.71,1.66,3.71,3.71-1.66,3.71-3.71,3.71Z"/>
    </g>
  </g>
</svg>