<?xml version="1.0" encoding="UTF-8"?>
<svg id="Capa_1" xmlns="http://www.w3.org/2000/svg" viewBox="0 0 800 800">
  <defs>
    <style>
      .cls-1 {
        fill: #fff;
      }
    </style>
  </defs>
  <path class="cls-1" d="M449.05,618.13l45.15,2.4v63.28h-188.35v-60.15l26.13-2.35c14.2-1.57,22.9-6.35,22.9-25.35v-220.02c0-17.48-4.7-23-19.78-23l-27.65-1.55v-65.65h141.65l-.05,332.4h0ZM393.67,116.2c34.85,0,60.13,26.17,60.13,59.35s-25.35,57.83-60.95,57.83-60.1-24.55-60.1-57.82,23.75-59.35,60.92-59.35ZM400,800C179.45,800,0,620.55,0,400S179.45,0,400,0s400,179.45,400,400-179.5,400-400,400ZM400,75c-179.2,0-325,145.8-325,325s145.8,325,325,325,325-145.8,325-325S579.2,75,400,75Z"/>
</svg>