<?xml version="1.0" encoding="UTF-8"?>
<svg id="Layer_2" xmlns="http://www.w3.org/2000/svg" viewBox="0 0 62.33 70.81">
  <defs>
    <style>
      .cls-1 {
        fill: #fefefe;
      }
    </style>
  </defs>
  <g id="music">
    <path class="cls-1" d="M62.27,57.44h.04V3.57c-.05-.16.08-1.41-1-2.63-.99-.93-2-.87-2.51-.9-.21,0-.36.01-.39.02l-.26.03-.23.12c-5.92,3.02-12.38,4.52-18.84,4.52S26.14,3.22,20.22.21l-.16-.08-.18-.04c-.06-.01-.4-.09-.88-.09-.55.02-1.46.05-2.25.89-1.01,1.22-.88,2.45-.92,2.68,0,.02,0,.05,0,.07v47.06c-.58-.09-1.17-.15-1.77-.15-2.38,0-4.92.68-7.28,2.06C2.63,55.05.03,58.99,0,62.92c0,1.33.32,2.67,1.02,3.86,1.59,2.72,4.64,4.03,7.86,4.03.01,0,.02,0,.03,0,2.38,0,4.91-.68,7.28-2.06,4.15-2.44,6.76-6.39,6.78-10.31,0-.41-.04-.82-.1-1.23V15.15c5.2,2.04,10.7,3.07,16.2,3.07s10.99-1.02,16.19-3.07v35.56c-.6-.1-1.22-.16-1.84-.16-2.38,0-4.92.68-7.28,2.06-4.15,2.44-6.76,6.38-6.78,10.31,0,1.33.32,2.67,1.02,3.86,1.59,2.72,4.64,4.03,7.86,4.03.01,0,.02,0,.03,0,2.38,0,4.91-.68,7.28-2.06,4.16-2.44,6.76-6.39,6.79-10.31,0-.33-.02-.67-.06-1Z"/>
  </g>
</svg>