<?xml version="1.0" encoding="UTF-8"?>
<svg id="Layer_2" xmlns="http://www.w3.org/2000/svg" viewBox="0 0 52.21 59.99">
  <defs>
    <style>
      .cls-1 {
        fill: #fff;
      }
    </style>
  </defs>
  <g id="power">
    <g>
      <path class="cls-1" d="M38.55,10.93c-.25-.13-.56-.04-.69.21l-1.95,3.6c-.06.12-.08.26-.04.39.04.13.13.24.25.3,6.78,3.68,10.99,10.75,10.99,18.46,0,11.57-9.41,20.99-20.99,20.99S5.12,45.45,5.12,33.88c0-7.7,4.21-14.77,10.98-18.45.25-.14.34-.45.21-.69l-1.95-3.6c-.06-.12-.17-.21-.3-.25-.13-.04-.27-.02-.39.04C5.23,15.51,0,24.3,0,33.88c0,14.39,11.71,26.1,26.1,26.1s26.1-11.71,26.1-26.1c0-9.58-5.23-18.38-13.66-22.95Z"/>
      <rect class="cls-1" x="23.54" width="5.12" height="32.76" rx=".51" ry=".51"/>
    </g>
  </g>
</svg>