<?xml version="1.0" encoding="UTF-8"?>
<svg id="Layer_2" xmlns="http://www.w3.org/2000/svg" viewBox="0 0 85.82 62.85">
  <defs>
    <style>
      .cls-1 {
        fill: #fff;
      }
    </style>
  </defs>
  <g id="Layer_32">
    <g>
      <path class="cls-1" d="M69.47,36.37c-.24.24-.37.56-.37.89v1.89c0,2.08-1.69,3.76-3.77,3.77h-6.47c-2.08,0-3.77-1.69-3.77-3.77v-1.89c0-.34-.13-.65-.37-.89-.24-.24-.55-.37-.89-.37h-21.81c-.33,0-.66.13-.89.37-.23.24-.37.56-.37.89v1.89c0,2.08-1.69,3.76-3.77,3.77h-6.47c-2.08,0-3.77-1.69-3.77-3.77v-1.89c0-.34-.13-.65-.37-.89-.24-.24-.55-.37-.89-.37H.01s0,20.56,0,20.56c0,3.47,2.81,6.29,6.29,6.29h73.24c3.47,0,6.28-2.81,6.28-6.29v-20.55s-15.46,0-15.46,0c-.33,0-.65.13-.89.37Z"/>
      <path class="cls-1" d="M16.64,28.85c.12-1.97,1.75-3.54,3.74-3.54h6.6c1.99,0,3.62,1.56,3.74,3.54.04.66.59,1.18,1.26,1.18h21.88c.66,0,1.21-.52,1.25-1.18.13-1.97,1.75-3.54,3.74-3.54h6.47c2,0,3.62,1.56,3.74,3.54.04.66.59,1.18,1.25,1.18h15.5s0-7.04,0-7.04c0-3.47-2.81-6.28-6.29-6.28h0s-18.2,0-18.2,0v-6.64c0-5.56-4.5-10.06-10.06-10.06h-16.55c-5.56,0-10.06,4.5-10.06,10.06v6.64H6.3C2.82,16.7,0,19.52,0,22.99v7.04s15.37,0,15.37,0c.66,0,1.21-.52,1.25-1.18ZM31.16,16.7v-6.72c0-1.39,1.13-2.51,2.51-2.51h18.65c1.39,0,2.51,1.13,2.51,2.51v6.63s0,.09,0,.09h-23.68Z"/>
    </g>
  </g>
</svg>