<?xml version="1.0" encoding="UTF-8"?>
<svg id="Layer_2" xmlns="http://www.w3.org/2000/svg" viewBox="0 0 43.52 73.48">
  <defs>
    <style>
      .cls-1 {
        fill: #fff;
      }
    </style>
  </defs>
  <g id="Layer_43">
    <path class="cls-1" d="M10.86,24.5H0c0-3.67.52-6.99,1.55-9.96,1.04-2.97,2.58-5.57,4.64-7.79,2.06-2.22,4.47-3.9,7.24-5.04s5.9-1.7,9.4-1.7c3.93,0,7.45.79,10.58,2.38,3.12,1.59,5.59,3.91,7.4,6.98,1.81,3.06,2.71,6.7,2.71,10.92,0,2.92-.38,5.4-1.14,7.44-.76,2.04-1.65,3.66-2.69,4.84-1.04,1.18-2.55,2.64-4.52,4.35-1.98,1.78-3.53,3.32-4.64,4.6-1.11,1.28-2.01,2.91-2.69,4.89-.68,1.98-1.02,4.51-1.02,7.59h-10.25c0-3.72.25-6.82.77-9.3.51-2.48,1.3-4.55,2.37-6.22,1.07-1.67,2.48-3.3,4.24-4.88,2.85-2.49,4.84-4.52,5.98-6.09,1.14-1.57,1.72-3.82,1.72-6.73,0-2.49-.5-4.58-1.51-6.27-1-1.68-2.24-2.92-3.71-3.71-1.47-.79-2.82-1.19-4.06-1.19-3.8,0-6.67,1.32-8.61,3.96-1.93,2.64-2.9,6.29-2.9,10.96ZM15.12,73.48v-12.55h12.71v12.55h-12.71Z"/>
  </g>
</svg>