<?xml version="1.0" encoding="UTF-8"?>
<svg id="Layer_2" xmlns="http://www.w3.org/2000/svg" viewBox="0 0 52.29 52.29">
  <defs>
    <style>
      .cls-1 {
        fill: #fff;
      }
    </style>
  </defs>
  <g id="user">
    <path class="cls-1" d="M41.64,0H10.65C4.77,0,0,4.77,0,10.65v30.99c0,5.88,4.77,10.65,10.65,10.65h30.98c5.88,0,10.65-4.77,10.65-10.65V10.65c0-5.88-4.77-10.65-10.65-10.65ZM10.65,19.37c0-2.14,1.73-3.87,3.87-3.87s3.87,1.73,3.87,3.87-1.73,3.87-3.87,3.87-3.87-1.73-3.87-3.87ZM37.88,36.91c-.25.2-4.58,4.66-11.74,4.72,0,0-.02,0-.03,0-3.55,0-6.31-1.21-8.12-2.42-1.82-1.22-2.75-2.43-2.89-2.61-.96-1.29-.7-3.11.58-4.07,1.27-.96,3.07-.71,4.04.55h0s.02.02.04.05c.05.05.13.15.26.28.25.25.65.61,1.19.97,1.09.72,2.68,1.45,4.92,1.45,4.15.05,7.39-2.76,7.63-3.02h0,0s0,0,0,0c1.13-1.13,2.97-1.13,4.1,0,1.13,1.13,1.13,2.97,0,4.11ZM37.76,23.24c-2.14,0-3.87-1.73-3.87-3.87s1.73-3.87,3.87-3.87,3.87,1.73,3.87,3.87-1.73,3.87-3.87,3.87Z"/>
  </g>
</svg>